<svg xmlns="http://www.w3.org/2000/svg" viewBox="0 0 512 512">
  <path d="M211 7.3C205 1 196-1.4 187.6 .8s-14.9 8.9-17.1 17.3L154.7 80.6l-62-17.5c-8.4-2.4-17.4 0-23.5 6.1s-8.5 15.1-6.1 23.5l17.5 62L18.1 170.6c-8.4 2.2-14.9 8.9-17.3 17.3s-.8 17.5 5.5 23.7l41.9 38.6L7.3 301c-6.3 6.1-8.7 15.2-6.5 23.5s8.9 14.9 17.3 17.1l62.5 15.8-17.5 62c-2.4 8.4 0 17.4 6.1 23.5s15.1 8.5 23.5 6.1l62-17.5 15.8 62.5c2.2 8.4 8.9 14.9 17.3 17.3s17.5 .8 23.7-5.5l38.6-41.9 50.8 41.9c6.1 6.3 15.2 8.7 23.5 6.5s14.9-8.9 17.1-17.3l15.8-62.5 62 17.5c8.4 2.4 17.4 0 23.5-6.1s8.5-15.1 6.1-23.5l-17.5-62 62.5-15.8c8.4-2.2 14.9-8.9 17.3-17.3s.8-17.5-5.5-23.7l-41.9-38.6L504.7 211c6.3-6.1 8.7-15.2 6.5-23.5s-8.9-14.9-17.3-17.1l-62.5-15.8 17.5-62c2.4-8.4 0-17.4-6.1-23.5s-15.1-8.5-23.5-6.1l-62 17.5L341.4 18.1c-2.2-8.4-8.9-14.9-17.3-17.3s-17.5-.8-23.7 5.5l-38.6 41.9L211 7.3zM256 128a128 128 0 1 1 0 256 128 128 0 1 1 0-256zm0 80a24 24 0 1 0 0-48 24 24 0 1 0 0 48zm-32 24a8 8 0 0 0 8 8h48a8 8 0 0 0 8-8v-56a8 8 0 0 0-8-8h-8V152a8 8 0 0 0-8-8H264a8 8 0 0 0-8 8v32a8 8 0 0 0 8 8h8v16H240a8 8 0 0 0-8 8v24z"/>
</svg> 